<?xml version="1.0" encoding="UTF-8" standalone="no"?>
<!-- Created with Inkscape (http://www.inkscape.org/) -->

<svg
   version="1.1"
   id="svg1"
   width="400"
   height="400"
   viewBox="0 0 400 400"
   sodipodi:docname="edipack_noname.svg"
   inkscape:version="1.4.3 (0d15f75042, 2025-12-25)"
   xmlns:inkscape="http://www.inkscape.org/namespaces/inkscape"
   xmlns:sodipodi="http://sodipodi.sourceforge.net/DTD/sodipodi-0.dtd"
   xmlns:xlink="http://www.w3.org/1999/xlink"
   xmlns="http://www.w3.org/2000/svg"
   xmlns:svg="http://www.w3.org/2000/svg">
  <defs
     id="defs1">
    <linearGradient
       id="linearGradient37"
       inkscape:collect="always">
      <stop
         style="stop-color:#637ae2;stop-opacity:1;"
         offset="0"
         id="stop37" />
      <stop
         style="stop-color:#6ce3d8;stop-opacity:1;"
         offset="1"
         id="stop38" />
    </linearGradient>
    <linearGradient
       id="linearGradient34"
       inkscape:collect="always">
      <stop
         style="stop-color:#60b1b5;stop-opacity:1;"
         offset="0"
         id="stop34" />
      <stop
         style="stop-color:#75df9d;stop-opacity:1;"
         offset="1"
         id="stop35" />
    </linearGradient>
    <linearGradient
       inkscape:collect="always"
       xlink:href="#linearGradient34"
       id="linearGradient35"
       x1="-205.02455"
       y1="-125.8886"
       x2="-131.24446"
       y2="-49.144585"
       gradientUnits="userSpaceOnUse"
       gradientTransform="translate(-61.781348,88.328012)" />
    <linearGradient
       inkscape:collect="always"
       xlink:href="#linearGradient37"
       id="linearGradient38"
       x1="-242.46985"
       y1="16.225027"
       x2="-262.74597"
       y2="145.23526"
       gradientUnits="userSpaceOnUse" />
  </defs>
  <sodipodi:namedview
     id="namedview1"
     pagecolor="#ffffff"
     bordercolor="#000000"
     borderopacity="0.25"
     inkscape:showpageshadow="2"
     inkscape:pageopacity="0.0"
     inkscape:pagecheckerboard="0"
     inkscape:deskcolor="#d1d1d1"
     inkscape:zoom="1.465"
     inkscape:cx="321.843"
     inkscape:cy="110.5802"
     inkscape:window-width="2560"
     inkscape:window-height="1368"
     inkscape:window-x="0"
     inkscape:window-y="0"
     inkscape:window-maximized="1"
     inkscape:current-layer="g1" />
  <g
     inkscape:groupmode="layer"
     inkscape:label="Image"
     id="g1">
    <rect
       style="fill:#112042;fill-opacity:1;stroke-width:3.46667;stroke-linecap:round"
       id="rect38"
       width="400"
       height="400.00003"
       x="0"
       y="-1.5258789e-05" />
    <g
       id="g38"
       transform="translate(418.62583,126.61898)">
      <path
         id="rect1"
         style="fill:url(#linearGradient38);fill-opacity:1;stroke-width:3.46667;stroke-linecap:round"
         d="m -262.17059,16.218729 -59.16798,100.337891 c -3.00605,-1.29677 -6.2491,-1.96626 -9.52734,-1.96679 -13.1949,9e-5 -23.89126,10.60637 -23.89063,23.68945 4.6e-4,13.08232 10.6965,23.68741 23.89063,23.6875 8.58922,4.7e-4 16.51761,-4.57074 20.76563,-11.97266 -0.20015,1.23883 -0.30073,2.49147 -0.30078,3.7461 -6.3e-4,13.08308 10.69572,23.68936 23.89062,23.68945 10.36976,2.4e-4 19.55562,-6.63234 22.73828,-16.41797 -1.3e-4,0.0443 -1.3e-4,0.0885 0,0.13281 4.6e-4,13.08232 10.6965,23.68746 23.89063,23.6875 13.19413,-9e-5 23.89016,-10.60518 23.89062,-23.6875 3.4e-4,-10.96948 -7.59501,-20.50427 -18.35742,-23.04492 l 4.25195,-121.880861 h 1.20899 l 27.96093,120.908211 c -8.73046,3.75711 -14.37914,12.29381 -14.3789,21.73047 4.6e-4,13.08231 10.69648,23.68741 23.89061,23.6875 13.19413,-8e-5 23.89017,-10.60518 23.89063,-23.6875 6.4e-4,-13.08308 -10.69573,-23.68938 -23.89063,-23.68946 -0.68913,4.1e-4 -1.37793,0.0305 -2.06445,0.0898 L -222.71161,16.218729 Z m 8.68945,0 h 5.30859 l -34.14453,114.201181 c -1.38417,-0.2445 -2.7874,-0.36737 -4.19336,-0.36719 -8.58962,-7e-5 -16.51811,4.57194 -20.76562,11.97461 0.20091,-1.23942 0.30214,-2.49272 0.30273,-3.74805 1.2e-4,-7.09956 -3.21128,-13.82487 -8.75,-18.32422 z m 13.06055,0 h 2.5039 l -4.36523,121.357431 c -9.44202,0.94502 -17.42471,7.3416 -20.33789,16.29687 1.3e-4,-0.0443 1.3e-4,-0.0885 0,-0.13281 1.3e-4,-8.84689 -4.97175,-16.9566 -12.89258,-21.0293 z m -90.48438,113.199221 c 5.20742,-7.5e-4 9.42936,4.22032 9.42968,9.42774 7.5e-4,5.20818 -4.2215,9.43043 -9.42968,9.42968 -5.20742,-3.2e-4 -9.42849,-4.22226 -9.42774,-9.42968 3.2e-4,-5.20666 4.22108,-9.42742 9.42774,-9.42774 z m 44.94922,15.63086 c 5.20742,3.3e-4 9.42848,4.22227 9.42773,9.42969 -3.3e-4,5.20665 -4.22108,9.4274 -9.42773,9.42773 -5.20666,-3.2e-4 -9.42741,-4.22107 -9.42774,-9.42773 -7.5e-4,-5.20742 4.22032,-9.42937 9.42774,-9.42969 z m 93.52929,4.19531 c 5.20666,3.3e-4 9.42741,4.22108 9.42773,9.42774 -3.3e-4,5.20665 -4.22108,9.4274 -9.42773,9.42773 -5.20666,-3.2e-4 -9.42741,-4.22107 -9.42774,-9.42773 3.2e-4,-5.20666 4.22108,-9.42742 9.42774,-9.42774 z m -47.23632,2.50196 c 5.20742,-7.5e-4 9.42936,4.22031 9.42969,9.42773 -3.2e-4,5.20742 -4.22227,9.42849 -9.42969,9.42774 -5.20666,-3.2e-4 -9.42742,-4.22108 -9.42774,-9.42774 3.3e-4,-5.20666 4.22108,-9.42741 9.42774,-9.42773 z"
         sodipodi:nodetypes="cccccccccccscccccccccccccccccccccccccccccccccccccccccccccc" />
      <path
         id="rect1-0"
         style="fill:url(#linearGradient35);stroke-width:3.46667;stroke-linecap:round"
         d="m -266.32324,-38.069966 v 54.300778 l 47.65039,0.0156 85.15625,90.949218 c -3.24728,4.15301 -5.00966,9.25873 -5.00976,14.51367 4.6e-4,13.08231 10.69649,23.68741 23.89062,23.6875 13.19412,-8e-5 23.890162,-10.60518 23.890622,-23.6875 -1.7e-4,-2.00387 -0.31732,-3.74377 -0.82422,-5.68359 l -0.13477,-0.42383 9.20899,-21.199218 c -5.91451,6.802548 -10.41154,14.740268 -16.44727,21.406248 l 2.5586,-8.98633 c -0.86415,-1.02419 -1.74993,-1.8796 -2.6543,-2.58203 l 6.04883,-19.222658 c 0,0 -5.58569,9.20569 -9.933602,16.042968 l -4.78319,8.39453 0.62694,-9.835928 c -1.09545,-0.33615 -2.13609,-0.70396 -3.49999,-0.88672 l 5.38671,-17.89649 -10.67382,17.21485 -3.98828,6.070308 -0.0156,-5.525388 c -2.77983,0.61861 -5.42566,1.725228 -7.8125,3.267578 l -81.19922,-85.632818 h 0.7207 v -54.300748 z m 13.86133,12.80469 h 30.37695 v 28.32812 h -30.37695 z m 137.67188,137.585936 c 5.20665,3.3e-4 9.42739,4.22108 9.42772,9.42773 7.5e-4,5.20742 -4.2203,9.42936 -9.42772,9.42969 -5.20819,7.5e-4 -9.43044,-4.22151 -9.42969,-9.42969 3.3e-4,-5.20742 4.22227,-9.42848 9.42969,-9.42773 z"
         sodipodi:nodetypes="ccccccccccccccccccccccccccccccccccccc" />
    </g>
  </g>
</svg>
