<?xml version="1.0" encoding="UTF-8" standalone="no"?>
<!-- Created with Inkscape (http://www.inkscape.org/) -->

<svg
   version="1.1"
   id="svg1"
   width="400.13382"
   height="146.90395"
   viewBox="0 0 400.13382 146.90395"
   sodipodi:docname="edipack_monochrome_banner.svg"
   inkscape:version="1.4.4 (dcaf3e7d9e, 2026-05-05)"
   xmlns:inkscape="http://www.inkscape.org/namespaces/inkscape"
   xmlns:sodipodi="http://sodipodi.sourceforge.net/DTD/sodipodi-0.dtd"
   xmlns="http://www.w3.org/2000/svg"
   xmlns:svg="http://www.w3.org/2000/svg">
  <defs
     id="defs1" />
  <sodipodi:namedview
     id="namedview1"
     pagecolor="#ffffff"
     bordercolor="#000000"
     borderopacity="0.25"
     inkscape:showpageshadow="2"
     inkscape:pageopacity="0.0"
     inkscape:pagecheckerboard="0"
     inkscape:deskcolor="#d1d1d1"
     inkscape:zoom="1.465"
     inkscape:cx="146.41638"
     inkscape:cy="180.88737"
     inkscape:window-width="2560"
     inkscape:window-height="1368"
     inkscape:window-x="0"
     inkscape:window-y="0"
     inkscape:window-maximized="1"
     inkscape:current-layer="g1" />
  <g
     inkscape:groupmode="layer"
     inkscape:label="Image"
     id="g1"
     transform="translate(0.13383245,-217.72124)">
    <path
       id="rect1"
       style="fill:#f9f9f9;fill-opacity:1;stroke-width:3.46668;stroke-linecap:round"
       d="m 56.632261,223.29174 v 32.39991 l 2.472935,9.6e-4 -35.29937,59.86093 c -1.793634,-0.77374 -3.72868,-1.17323 -5.684723,-1.17354 -7.873063,6e-5 -14.2553115,6.32856 -14.2549355,14.13489 2.752e-4,7.80589 6.3823315,14.13368 14.2549355,14.13373 5.12497,3e-4 9.855633,-2.72724 12.39032,-7.14377 -0.119431,0.73918 -0.179437,1.48658 -0.179468,2.2352 -3.76e-4,7.80633 6.381872,14.13484 14.254935,14.13489 6.187374,1.4e-4 11.668344,-3.95735 13.567358,-9.79619 -7.9e-5,0.0265 -7.9e-5,0.0527 0,0.0792 2.74e-4,7.80588 6.382324,14.13371 14.254928,14.13374 7.872604,-7e-5 14.254665,-6.32786 14.254933,-14.13374 2.07e-4,-6.54521 -4.531746,-12.23437 -10.953406,-13.75033 l 2.53703,-72.70923 h 0.724865 l 16.680084,72.12888 c -5.20924,2.24178 -8.579669,7.3354 -8.579522,12.96602 2.66e-4,7.80588 6.382321,14.13369 14.25493,14.13373 7.87261,-4e-5 14.25465,-6.32784 14.25492,-14.13373 3.9e-4,-7.80635 -6.38186,-14.13485 -14.25492,-14.13491 -0.41119,2.5e-4 -0.82219,0.0181 -1.23181,0.0537 l -17.438746,-71.01245 2.406517,9.6e-4 50.810579,54.2671 c -1.93758,2.47801 -2.98915,5.52445 -2.98921,8.65994 2.8e-4,7.80589 6.38232,14.13367 14.25493,14.13375 7.8726,-7e-5 14.25466,-6.32786 14.25494,-14.13375 -1.1e-4,-1.19566 -0.18934,-2.23382 -0.49181,-3.39125 l -0.0804,-0.25289 5.49476,-12.64904 c -3.52903,4.05892 -6.2123,8.79516 -9.81367,12.77257 l 1.52665,-5.36192 c -0.51563,-0.61111 -1.04414,-1.12151 -1.58376,-1.54062 l 3.60917,-11.46969 c 0,0 -3.33282,5.49282 -5.92711,9.57244 l -2.85402,5.0088 0.3741,-5.86884 c -0.65364,-0.20057 -1.27456,-0.42005 -2.08837,-0.52908 l 3.21413,-10.6784 -6.36882,10.27168 -2.37969,3.622 -0.01,-3.29687 c -1.65865,0.3691 -3.23734,1.0294 -4.66153,1.94968 L 90.905737,255.69167 h 0.430021 v -32.39993 z m 8.270699,7.64024 h 18.125165 v 16.90267 H 64.90296 Z m -0.614151,24.762 3.169835,9.5e-4 -20.369683,68.13047 c -0.825899,-0.14589 -1.663171,-0.2192 -2.502071,-0.2191 -5.125209,-3e-5 -9.855944,2.72796 -12.390326,7.14495 0.11988,-0.73952 0.180285,-1.48734 0.180636,-2.23637 7.3e-5,-4.23611 -1.916088,-8.24894 -5.220903,-10.93358 z m 7.795227,0.003 1.497516,9.6e-4 -2.604628,72.39808 c -5.633814,0.56387 -10.396885,4.38055 -12.135105,9.72393 7.7e-5,-0.0265 7.7e-5,-0.0527 0,-0.0792 7.7e-5,-5.27871 -2.966517,-10.11756 -7.692677,-12.54764 z m 74.964254,57.32972 c 3.10667,1.9e-4 5.62509,2.51861 5.62528,5.6253 4.5e-4,3.10714 -2.51814,5.62625 -5.62528,5.62644 -3.1076,4.5e-4 -5.62691,-2.51886 -5.62646,-5.62644 1.9e-4,-3.10715 2.51932,-5.62575 5.62646,-5.6253 z M 18.097796,323.2278 c 3.107136,-4.5e-4 5.626261,2.51816 5.626453,5.6253 4.47e-4,3.10759 -2.518864,5.62691 -5.626453,5.62646 -3.107136,-2e-4 -5.625742,-2.51933 -5.625294,-5.62646 1.91e-4,-3.10669 2.518612,-5.62511 5.625294,-5.6253 z m 26.820057,9.32654 c 3.107136,1.9e-4 5.625742,2.51932 5.625295,5.62647 -1.97e-4,3.10666 -2.518618,5.62509 -5.625295,5.62528 -3.106682,-1.9e-4 -5.625091,-2.51861 -5.625288,-5.62528 -4.47e-4,-3.10715 2.518152,-5.62628 5.625288,-5.62647 z m 55.806567,2.50324 c 3.10669,1.9e-4 5.62511,2.51861 5.6253,5.62529 -1.9e-4,3.10667 -2.51862,5.62509 -5.6253,5.6253 -3.10668,-2e-4 -5.625084,-2.51863 -5.62529,-5.6253 1.95e-4,-3.10668 2.51861,-5.6251 5.62529,-5.62529 z m -28.184722,1.49285 c 3.107136,-4.4e-4 5.626261,2.51816 5.626458,5.62529 -1.91e-4,3.10714 -2.519322,5.62574 -5.626458,5.62529 -3.106682,-1.8e-4 -5.625098,-2.51861 -5.625287,-5.62529 1.96e-4,-3.10668 2.518605,-5.62509 5.625287,-5.62529 z" />
    <path
       id="path74-3"
       style="fill:#f9f9f9;fill-opacity:1;stroke-width:3.46667;stroke-linecap:round"
       d="m 185.93606,314.33453 v 44.95 h 10.2539 v -10.52592 l -0.008,-0.073 10.94182,-0.17149 a 15.045267,17.090898 0 0 0 15.04181,-17.08982 15.045267,17.090898 0 0 0 -15.04181,-17.08983 h -0.0157 -15.03196 z m 10.2539,9.07318 h 7.70915 0.008 a 7.7161664,7.8280038 0 0 1 7.71506,7.82742 7.7161664,7.8280038 0 0 1 -7.71506,7.82742 l -7.71702,0.10841 v -7.92401 a 7.7161664,7.8280038 0 0 1 0,-0.0118 7.7161664,7.8280038 0 0 1 0,-0.0118 z" />
    <path
       d="m 313.62248,314.3345 c -12.48701,5.9e-4 -22.60918,10.0635 -22.60829,22.47593 1.5e-4,12.41172 10.12201,22.47348 22.60829,22.47407 8.58631,3e-4 16.05445,-4.75772 19.8827,-11.76556 l -8.71558,-4.69989 c -2.2328,3.9472 -6.4344,6.38976 -10.99001,6.38894 -6.9613,-6.1e-4 -12.60428,-5.6102 -12.6045,-12.52992 2.2e-4,-6.91971 5.6432,-12.52932 12.6045,-12.52993 4.64823,9e-5 8.91923,2.54291 11.11306,6.61638 l 8.60371,-4.63276 c -3.94703,-7.26707 -11.58569,-11.79687 -19.89388,-11.79726 z"
       style="fill:#f9f9f9;fill-opacity:1;stroke-width:3.46667;stroke-linecap:round"
       id="path73" />
    <g
       id="g2"
       transform="matrix(1.707686,0,0,1.707686,139.38639,-311.21067)"
       style="stroke-width:0.585588">
      <path
         d="m 25.406143,314.3345 h 33.64 v 9.38 l -23.519999,0.2 v 8.79 h 18.399999 v 8.48 H 35.526144 v 8.72 h 23.519999 v 9.38 h -33.64 z"
         id="path63"
         style="fill:#f9f9f9;stroke-width:0.585588"
         sodipodi:nodetypes="ccccccccccccc" />
      <path
         id="path75"
         style="fill:#f9f9f9;fill-opacity:1;stroke-width:2.03005;stroke-linecap:round"
         d="m 77.625518,314.3345 v 44.95 h 22.841782 0.035 1.82711 l -0.004,-0.0973 a 19.677866,22.475431 0 0 0 17.83718,-22.37672 19.677866,22.475431 0 0 0 -19.6779,-22.47598 z m 10.639652,9.75237 h 11.59115 0.01751 a 9.3064947,12.72213 0 0 1 9.30678,12.72361 9.3064947,12.72213 0 0 1 -9.30678,12.72166 H 88.26517 Z" />
      <path
         d="m 138.29615,314.33449 h 10.54704 v 44.95001 h -10.54704 z"
         id="path65"
         style="fill:#f9f9f9;stroke-width:0.585588"
         sodipodi:nodetypes="ccccc" />
    </g>
    <path
       d="m 230.07623,359.28449 19.19939,-44.94999 h 11.3662 l 19.40128,44.94999 h -11.51762 l -2.72546,-6.9146 h -21.6826 l -2.72546,6.9146 h -11.32583 z m 31.38323,-16.23165 -6.47046,-14.32384 -6.3897,14.32384 h 12.85007 z"
       id="path67"
       style="fill:#f9f9f9;stroke-width:1"
       sodipodi:nodetypes="ccccccccccccccc" />
    <path
       d="m 353.90614,314.3345 h 10.36 l 0.11,19.22 17.74,-19.22 h 12.54 l -15.86,18.91 17.69,26.04 h -12.42 l -12.19,-17.98 -7.42,7.9 v 10.08 h -10.54 z"
       id="path68"
       style="fill:#f9f9f9"
       sodipodi:nodetypes="ccccccccccccc" />
  </g>
</svg>
