<?xml version="1.0" encoding="UTF-8" standalone="no"?>
<!-- Created with Inkscape (http://www.inkscape.org/) -->

<svg
   version="1.1"
   id="svg1"
   width="435.38983"
   height="44.950062"
   viewBox="0 0 435.38983 44.950062"
   sodipodi:docname="edipack_monochrome_banner.svg"
   inkscape:version="1.4.4 (dcaf3e7d9e, 2026-05-05)"
   xmlns:inkscape="http://www.inkscape.org/namespaces/inkscape"
   xmlns:sodipodi="http://sodipodi.sourceforge.net/DTD/sodipodi-0.dtd"
   xmlns="http://www.w3.org/2000/svg"
   xmlns:svg="http://www.w3.org/2000/svg">
  <defs
     id="defs1" />
  <sodipodi:namedview
     id="namedview1"
     pagecolor="#ffffff"
     bordercolor="#000000"
     borderopacity="0.25"
     inkscape:showpageshadow="2"
     inkscape:pageopacity="0.0"
     inkscape:pagecheckerboard="0"
     inkscape:deskcolor="#d1d1d1"
     inkscape:zoom="1.465"
     inkscape:cx="179.86348"
     inkscape:cy="80.546075"
     inkscape:window-width="2560"
     inkscape:window-height="1368"
     inkscape:window-x="0"
     inkscape:window-y="0"
     inkscape:window-maximized="1"
     inkscape:current-layer="g1" />
  <g
     inkscape:groupmode="layer"
     inkscape:label="Image"
     id="g1"
     transform="translate(54.903678,-183.52466)">
    <path
       id="rect1"
       style="fill:#f9f9f9;fill-opacity:1;stroke-width:3.46668;stroke-linecap:round"
       d="m -31.070355,183.52468 v 10.95017 l 0.835777,4e-4 -11.930107,20.23116 c -0.606193,-0.2615 -1.26018,-0.39651 -1.921263,-0.39662 -2.660854,2e-5 -4.817857,2.13886 -4.81773,4.77717 9.3e-5,2.63815 2.157031,4.77675 4.81773,4.77676 1.732083,1e-4 3.330903,-0.92172 4.18755,-2.41437 -0.04036,0.24982 -0.06064,0.50242 -0.06065,0.75542 -1.27e-4,2.63831 2.156877,4.77715 4.817731,4.77717 2.091143,4e-5 3.943543,-1.33747 4.585352,-3.31081 -2.7e-5,0.009 -2.7e-5,0.0178 0,0.0268 9.2e-5,2.63815 2.15703,4.77676 4.817729,4.77677 2.660699,-2e-5 4.817639,-2.13862 4.817731,-4.77677 6.9e-5,-2.21208 -1.531593,-4.13485 -3.701916,-4.64719 l 0.857434,-24.5735 h 0.244982 l 5.637359,24.37736 c -1.760565,0.75765 -2.899668,2.47914 -2.899619,4.38212 9.3e-5,2.63814 2.157032,4.77675 4.817731,4.77676 2.660704,-10e-6 4.817634,-2.13861 4.817734,-4.77676 1.2e-4,-2.63831 -2.15688,-4.77715 -4.817734,-4.77717 -0.138968,8e-5 -0.27787,0.006 -0.416312,0.0181 l -5.893765,-24.00003 0.813328,4e-4 17.172423,18.34062 c -0.65484,0.83749 -1.01024,1.8671 -1.01026,2.9268 9e-5,2.63814 2.1570301,4.77675 4.8177301,4.77676 2.6607,-1e-5 4.81764,-2.13861 4.81773,-4.77676 -4e-5,-0.4041 -0.064,-0.75497 -0.16621,-1.14615 l -0.0272,-0.0855 1.85707,-4.27496 c -1.19271,1.37178 -2.09957,2.97249 -3.31672,4.31673 l 0.51596,-1.81216 c -0.17427,-0.20654 -0.35289,-0.37904 -0.53526,-0.52069 l 1.21979,-3.8764 c 0,0 -1.1264,1.8564 -2.00319,3.23519 l -0.96457,1.69283 0.12643,-1.98349 c -0.2209,-0.0678 -0.43076,-0.14196 -0.7058,-0.17882 l 1.08628,-3.60897 -2.15246,3.47151 -0.80427,1.22413 -0.003,-1.11424 c -0.56057,0.12475 -1.09412,0.34791 -1.57545,0.65893 L -19.486844,194.47486 h 0.145337 v -10.95018 z m 2.795243,2.58216 h 6.12575 v 5.71259 h -6.12575 z m -0.207564,8.3688 1.071307,4e-4 -6.884329,23.02601 c -0.279129,-0.0493 -0.562101,-0.0741 -0.845624,-0.074 -1.732163,-1e-5 -3.331007,0.92197 -4.18755,2.41478 0.04051,-0.24994 0.06093,-0.50268 0.06105,-0.75583 2.4e-5,-1.43168 -0.64758,-2.78789 -1.764506,-3.69522 z m 2.634548,8.1e-4 0.506114,4e-4 -0.880284,24.46834 c -1.904057,0.19057 -3.513829,1.48049 -4.101294,3.28639 2.6e-5,-0.009 2.6e-5,-0.0178 0,-0.0268 2.6e-5,-1.78405 -1.002592,-3.41943 -2.599889,-4.24073 z m 25.3356181,19.37568 c 1.04997,7e-5 1.90111,0.85122 1.90118,1.90118 1.5e-4,1.05012 -0.85106,1.9015 -1.90118,1.90157 -1.05027,1.5e-4 -1.90172,-0.8513 -1.90157,-1.90157 7e-5,-1.05012 0.85146,-1.90133 1.90157,-1.90118 z m -43.5813151,3.44786 c 1.050117,-1.5e-4 1.901506,0.85106 1.90157,1.90118 1.51e-4,1.05027 -0.8513,1.90172 -1.90157,1.90157 -1.050117,-7e-5 -1.901327,-0.85146 -1.901176,-1.90157 6.5e-5,-1.04997 0.851213,-1.90111 1.901176,-1.90118 z m 9.064359,3.15209 c 1.050117,6e-5 1.901328,0.85145 1.901177,1.90157 -6.6e-5,1.04996 -0.851216,1.90111 -1.901177,1.90117 -1.049963,-6e-5 -1.901109,-0.85121 -1.901175,-1.90117 -1.51e-4,-1.05012 0.851058,-1.90151 1.901175,-1.90157 z m 18.860911,0.84601 c 1.049964,7e-5 1.901111,0.85122 1.901177,1.90118 -6.6e-5,1.04996 -0.851216,1.90111 -1.901177,1.90118 -1.049963,-7e-5 -1.901109,-0.85122 -1.901175,-1.90118 6.4e-5,-1.04996 0.851212,-1.90111 1.901175,-1.90118 z m -9.525573,0.50454 c 1.050116,-1.5e-4 1.901503,0.85106 1.90157,1.90118 -6.5e-5,1.05011 -0.851454,1.90133 -1.90157,1.90117 -1.049964,-6e-5 -1.901111,-0.85121 -1.901176,-1.90117 6.7e-5,-1.04997 0.851212,-1.90111 1.901176,-1.90118 z" />
    <g
       id="g77"
       transform="translate(-0.4838565,-126.90531)"
       style="fill:#f9f9f9">
      <path
         id="path74-3"
         style="fill:#f9f9f9;fill-opacity:1;stroke-width:3.46667;stroke-linecap:round"
         d="m 164.41992,310.43003 v 44.95 h 10.2539 v -10.52592 l -0.008,-0.073 10.94182,-0.17149 a 15.045267,17.090898 0 0 0 15.04181,-17.08982 15.045267,17.090898 0 0 0 -15.04181,-17.08983 h -0.0157 -15.03196 z m 10.2539,9.07318 h 7.70915 0.008 a 7.7161664,7.8280038 0 0 1 7.71506,7.82742 7.7161664,7.8280038 0 0 1 -7.71506,7.82742 l -7.71702,0.10841 v -7.92401 a 7.7161664,7.8280038 0 0 1 0,-0.0118 7.7161664,7.8280038 0 0 1 0,-0.0118 z" />
      <path
         d="m 292.10634,310.43 c -12.48701,5.9e-4 -22.60918,10.0635 -22.60829,22.47593 1.5e-4,12.41172 10.12201,22.47348 22.60829,22.47407 8.58631,3e-4 16.05445,-4.75772 19.8827,-11.76556 l -8.71558,-4.69989 c -2.2328,3.9472 -6.4344,6.38976 -10.99001,6.38894 -6.9613,-6.1e-4 -12.60428,-5.6102 -12.6045,-12.52992 2.2e-4,-6.91971 5.6432,-12.52932 12.6045,-12.52993 4.64823,9e-5 8.91923,2.54291 11.11306,6.61638 l 8.60371,-4.63276 C 308.05319,314.96019 300.41453,310.43039 292.10634,310.43 Z"
         style="fill:#f9f9f9;fill-opacity:1;stroke-width:3.46667;stroke-linecap:round"
         id="path73" />
      <path
         d="m 19.89,310.43 h 33.64 v 9.38 l -23.52,0.2 v 8.79 h 18.4 v 8.48 H 30.01 V 346 h 23.52 v 9.38 H 19.89 Z"
         id="path63"
         style="fill:#f9f9f9"
         sodipodi:nodetypes="ccccccccccccc" />
      <path
         id="path75"
         style="fill:#f9f9f9;fill-opacity:1;stroke-width:3.46668;stroke-linecap:round"
         d="m 72.109375,310.43 v 44.95 h 22.841784 0.03503 1.827109 l -0.0039,-0.0973 A 19.677866,22.475431 0 0 0 114.64658,332.90598 19.677866,22.475431 0 0 0 94.968672,310.43 Z m 10.639652,9.75237 h 11.59115 0.01751 a 9.3064947,12.72213 0 0 1 9.306783,12.72361 9.3064947,12.72213 0 0 1 -9.306783,12.72166 h -11.60866 z" />
      <path
         d="m 132.78001,310.42999 h 10.54704 V 355.38 h -10.54704 z"
         id="path65"
         style="fill:#f9f9f9;stroke-width:1"
         sodipodi:nodetypes="ccccc" />
      <path
         d="M 208.56009,355.37999 227.75948,310.43 h 11.3662 l 19.40128,44.94999 h -11.51762 l -2.72546,-6.9146 h -21.6826 l -2.72546,6.9146 h -11.32583 z m 31.38323,-16.23165 -6.47046,-14.32384 -6.3897,14.32384 h 12.85007 z"
         id="path67"
         style="fill:#f9f9f9;stroke-width:1"
         sodipodi:nodetypes="ccccccccccccccc" />
      <path
         d="m 332.39,310.43 h 10.36 l 0.11,19.22 17.74,-19.22 h 12.54 l -15.86,18.91 17.69,26.04 h -12.42 l -12.19,-17.98 -7.42,7.9 v 10.08 H 332.4 Z"
         id="path68"
         style="fill:#f9f9f9"
         sodipodi:nodetypes="ccccccccccccc" />
    </g>
  </g>
</svg>
